name Walk6.mot
datacolumns 19
datarows 17
range 2.14100000 2.15700000
endheader

                time	   L_ground_force_vx	   L_ground_force_vy	   L_ground_force_vz	   L_ground_force_px	   L_ground_force_py	   L_ground_force_pz	   R_ground_force_vx	   R_ground_force_vy	   R_ground_force_vz	   R_ground_force_px	   R_ground_force_py	   R_ground_force_pz	   L_ground_torque_x	   L_ground_torque_y	   L_ground_torque_z	   R_ground_torque_x	   R_ground_torque_y	   R_ground_torque_z	
          2.14100000	          0.00000010	          0.00000047	         -0.00000003	         -0.00000000	          0.00000000	         -0.00000000	         19.25468723	         83.89463663	          2.91906513	          0.18262857	          0.00000000	          0.02361983	          0.00000000	          0.00000000	          0.00000000	          0.00000000	         -4.22269952	          0.00000000	
          2.14200000	          0.00000008	          0.00000044	         -0.00000003	         -0.00000000	          0.00000000	         -0.00000000	         17.96887742	         78.07566735	          2.84478176	          0.17825345	          0.00000000	          0.02296167	          0.00000000	          0.00000000	          0.00000000	          0.00000000	         -3.96414591	          0.00000000	
          2.14300000	          0.00000007	          0.00000041	         -0.00000002	         -0.00000000	          0.00000000	         -0.00000000	         16.72484145	         72.46757208	          2.76494290	          0.17371956	          0.00000000	          0.02228792	          0.00000000	          0.00000000	          0.00000000	          0.00000000	         -3.71272900	          0.00000000	
          2.14400000	          0.00000006	          0.00000038	         -0.00000002	         -0.00000000	          0.00000000	         -0.00000000	         15.52352327	         67.07101457	          2.68048044	          0.16903344	          0.00000000	          0.02159957	          0.00000000	          0.00000000	          0.00000000	          0.00000000	         -3.46873303	          0.00000000	
          2.14500000	          0.00000005	          0.00000035	         -0.00000002	         -0.00000000	          0.00000000	         -0.00000000	         14.36570169	         61.88619324	          2.59227730	          0.16420305	          0.00000000	          0.02089782	          0.00000000	          0.00000000	          0.00000000	          0.00000000	         -3.23240954	          0.00000000	
          2.14600000	          0.00000005	          0.00000033	         -0.00000002	         -0.00000000	          0.00000000	         -0.00000000	         13.25198506	         56.91286480	          2.50115831	          0.15923789	          0.00000000	          0.02018412	          0.00000000	          0.00000000	          0.00000000	          0.00000000	         -3.00397527	          0.00000000	
          2.14700000	          0.00000004	          0.00000030	         -0.00000002	         -0.00000000	          0.00000000	         -0.00000000	         12.18280729	         52.15036569	          2.40788148	          0.15414914	          0.00000000	          0.01946015	          0.00000000	          0.00000000	          0.00000000	          0.00000000	         -2.78361033	          0.00000000	
          2.14800000	          0.00000003	          0.00000028	         -0.00000002	         -0.00000000	          0.00000000	         -0.00000000	         11.15842569	         47.59762964	          2.31313072	          0.14894977	          0.00000000	          0.01872783	          0.00000000	          0.00000000	          0.00000000	          0.00000000	         -2.57145690	          0.00000000	
          2.14900000	          0.00000002	          0.00000025	         -0.00000002	         -0.00000000	          0.00000000	         -0.00000000	         10.17892120	         43.25319936	          2.21751084	          0.14365469	          0.00000000	          0.01798927	          0.00000000	          0.00000000	          0.00000000	          0.00000000	         -2.36761860	          0.00000000	
          2.15000000	          0.00000002	          0.00000023	         -0.00000002	         -0.00000000	          0.00000000	         -0.00000000	          9.24420183	         39.11523003	          2.12154656	          0.13828088	          0.00000000	          0.01724675	          0.00000000	          0.00000000	          0.00000000	          0.00000000	         -2.17216073	          0.00000000	
          2.15100000	          0.00000001	          0.00000021	         -0.00000001	         -0.00000000	          0.00000000	         -0.00000000	          8.35400988	         35.18148350	          2.02568626	          0.13284755	          0.00000000	          0.01650272	          0.00000000	          0.00000000	          0.00000000	          0.00000000	         -1.98511148	          0.00000000	
          2.15200000	          0.00000000	          0.00000019	         -0.00000001	         -0.00000000	          0.00000000	         -0.00000000	          7.50793359	         31.44931182	          1.93031120	          0.12737601	          0.00000000	          0.01575975	          0.00000000	          0.00000000	          0.00000000	          0.00000000	         -1.80646408	          0.00000000	
          2.15300000	         -0.00000000	          0.00000017	         -0.00000001	         -0.00000000	          0.00000000	         -0.00000000	          6.70542287	         27.91563244	          1.83574968	          0.12188862	          0.00000000	          0.01502042	          0.00000000	          0.00000000	          0.00000000	          0.00000000	         -1.63617973	          0.00000000	
          2.15400000	         -0.00000001	          0.00000015	         -0.00000001	         -0.00000000	          0.00000000	         -0.00000000	          5.94580673	         24.57691452	          1.74229131	          0.11640721	          0.00000000	          0.01428719	          0.00000000	          0.00000000	          0.00000000	          0.00000000	         -1.47419092	          0.00000000	
          2.15500000	         -0.00000001	          0.00000013	         -0.00000001	         -0.00000000	          0.00000000	         -0.00000000	          5.22830850	         21.42919786	          1.65019544	          0.11095197	          0.00000000	          0.01356232	          0.00000000	          0.00000000	          0.00000000	          0.00000000	         -1.32040445	          0.00000000	
          2.15600000	         -0.00000001	          0.00000011	         -0.00000001	         -0.00000000	          0.00000000	         -0.00000000	          4.55205839	         18.46813722	          1.55969425	          0.10554129	          0.00000000	          0.01284782	          0.00000000	          0.00000000	          0.00000000	          0.00000000	         -1.17470405	          0.00000000	
          2.15700000	         -0.00000002	          0.00000010	         -0.00000001	         -0.00000000	          0.00000000	         -0.00000000	          3.91610471	         15.68905150	          1.47099412	          0.10019184	          0.00000000	          0.01214553	          0.00000000	          0.00000000	          0.00000000	          0.00000000	         -1.03695277	          0.00000000	
